<?xml version="1.0" encoding="UTF-8"?>
<svg id="Laag_1" data-name="Laag 1" xmlns="http://www.w3.org/2000/svg" xmlns:xlink="http://www.w3.org/1999/xlink" viewBox="0 0 1704.69 819.08">
  <defs>
    <style>
      .cls-1 {
        fill: url(#Naamloos_verloop_75-4);
      }

      .cls-1, .cls-2, .cls-3, .cls-4, .cls-5, .cls-6, .cls-7, .cls-8, .cls-9, .cls-10, .cls-11 {
        fill-rule: evenodd;
      }

      .cls-12 {
        fill: url(#Naamloos_verloop_75-2);
      }

      .cls-2 {
        fill: url(#Naamloos_verloop_75);
      }

      .cls-3, .cls-13 {
        fill: #e5087e;
      }

      .cls-4 {
        fill: url(#Naamloos_verloop_75-5);
      }

      .cls-5 {
        fill: url(#Naamloos_verloop_75-10);
      }

      .cls-6 {
        fill: url(#Naamloos_verloop_75-6);
      }

      .cls-7 {
        fill: url(#Naamloos_verloop_75-9);
      }

      .cls-8 {
        fill: url(#Naamloos_verloop_75-11);
      }

      .cls-9 {
        fill: url(#Naamloos_verloop_75-3);
      }

      .cls-10 {
        fill: url(#Naamloos_verloop_75-8);
      }

      .cls-14 {
        fill: url(#Naamloos_verloop_10);
      }

      .cls-11 {
        fill: url(#Naamloos_verloop_75-7);
      }
    </style>
    <linearGradient id="Naamloos_verloop_75" data-name="Naamloos verloop 75" x1="1531.61" y1="320.6" x2="1482.68" y2="186.15" gradientUnits="userSpaceOnUse">
      <stop offset="0" stop-color="#a4720d"/>
      <stop offset="0" stop-color="#a6740f"/>
      <stop offset=".12" stop-color="#c29225"/>
      <stop offset=".18" stop-color="#cd9e2e"/>
      <stop offset=".23" stop-color="#e0b747"/>
      <stop offset=".29" stop-color="#f5d161"/>
      <stop offset=".32" stop-color="#fddb6b"/>
      <stop offset=".47" stop-color="#fde773"/>
      <stop offset=".47" stop-color="#fce672"/>
      <stop offset=".52" stop-color="#edcc57"/>
      <stop offset=".57" stop-color="#e5bc46"/>
      <stop offset=".61" stop-color="#e2b741"/>
      <stop offset=".73" stop-color="#fddb6b"/>
      <stop offset=".97" stop-color="#fde773"/>
      <stop offset="1" stop-color="#a4720d"/>
    </linearGradient>
    <linearGradient id="Naamloos_verloop_75-2" data-name="Naamloos verloop 75" x1="1400.92" y1="368.54" x2="1335.01" y2="187.46" xlink:href="#Naamloos_verloop_75"/>
    <linearGradient id="Naamloos_verloop_75-3" data-name="Naamloos verloop 75" x1="861" y1="344.75" x2="795.15" y2="163.84" xlink:href="#Naamloos_verloop_75"/>
    <linearGradient id="Naamloos_verloop_75-4" data-name="Naamloos verloop 75" x1="1258.27" y1="375.29" x2="1220.86" y2="272.49" xlink:href="#Naamloos_verloop_75"/>
    <linearGradient id="Naamloos_verloop_75-5" data-name="Naamloos verloop 75" x1="1130.68" y1="354.54" x2="1071.22" y2="191.18" xlink:href="#Naamloos_verloop_75"/>
    <linearGradient id="Naamloos_verloop_75-6" data-name="Naamloos verloop 75" x1="1704.4" y1="638.63" x2="1638.49" y2="457.54" xlink:href="#Naamloos_verloop_75"/>
    <linearGradient id="Naamloos_verloop_75-7" data-name="Naamloos verloop 75" x1="1253.48" y1="510.25" x2="1222.69" y2="425.67" xlink:href="#Naamloos_verloop_75"/>
    <linearGradient id="Naamloos_verloop_75-8" data-name="Naamloos verloop 75" x1="1120.77" y1="656.22" x2="1059.01" y2="486.55" xlink:href="#Naamloos_verloop_75"/>
    <linearGradient id="Naamloos_verloop_75-9" data-name="Naamloos verloop 75" x1="858.59" y1="610.34" x2="792.74" y2="429.43" xlink:href="#Naamloos_verloop_75"/>
    <linearGradient id="Naamloos_verloop_75-10" data-name="Naamloos verloop 75" x1="1440.68" y1="586.24" x2="1391.75" y2="451.79" xlink:href="#Naamloos_verloop_75"/>
    <linearGradient id="Naamloos_verloop_10" data-name="Naamloos verloop 10" x1="281.16" y1="708.71" x2="39" y2="43.37" gradientUnits="userSpaceOnUse">
      <stop offset="0" stop-color="#a4720d"/>
      <stop offset="0" stop-color="#a6740f"/>
      <stop offset=".12" stop-color="#c29225"/>
      <stop offset=".18" stop-color="#cd9e2e"/>
      <stop offset=".23" stop-color="#e0b747"/>
      <stop offset=".29" stop-color="#f5d161"/>
      <stop offset=".32" stop-color="#fddb6b"/>
      <stop offset=".47" stop-color="#fde773"/>
      <stop offset=".47" stop-color="#fce672"/>
      <stop offset=".52" stop-color="#edcc57"/>
      <stop offset=".57" stop-color="#e5bc46"/>
      <stop offset=".61" stop-color="#e2b741"/>
      <stop offset=".73" stop-color="#fddb6b"/>
      <stop offset=".97" stop-color="#fde773"/>
      <stop offset="1" stop-color="#a4720d"/>
    </linearGradient>
    <linearGradient id="Naamloos_verloop_75-11" data-name="Naamloos verloop 75" x1="422.56" y1="474.24" x2="359.52" y2="301.04" xlink:href="#Naamloos_verloop_75"/>
  </defs>
  <g>
    <path class="cls-3" d="M1569.14,315.38c-7.41,6.87-14.87,12.29-22.37,16.27-7.51,3.98-16.68,5.97-27.53,5.97-7.86,0-15.1-1.48-21.69-4.44l-29.74,29.74c3.59,2.08,7.35,3.94,11.28,5.61,11.94,5.07,24.87,7.6,38.79,7.6,9.22,0,17.54-.77,24.95-2.3,7.41-1.54,14.24-3.79,20.48-6.78,6.24-2.98,11.98-6.56,17.22-10.71,5.24-4.16,10.31-8.87,15.19-14.11l-26.58-26.85Z"/>
    <polygon class="cls-3" points="890.97 372.94 932.2 372.94 932.2 216.61 890.97 288.02 890.97 372.94"/>
    <path class="cls-3" d="M1232.61,180.35c-9.76,0-18.71,1.36-26.81,4.08-8.09,2.71-15.1,6.6-20.93,11.66-5.84,5.06-10.35,11.07-13.61,18.04-3.21,6.96-4.84,14.77-4.84,23.46v.54c0,9.4,1.49,17.27,4.48,23.6,2.98,6.33,7.23,11.61,12.65,15.86,5.42,4.25,12.08,7.83,19.85,10.72l.49.18,27.31-34.08c-.96-.28-1.87-.55-2.75-.83-5.34-1.63-9.54-3.34-12.67-5.15-3.08-1.8-5.19-3.84-6.37-6.1-1.17-2.26-1.76-4.93-1.76-8v-.54c0-4.71,2.03-8.63,6.1-11.81,4.07-3.16,10.18-4.74,18.31-4.74s16.27,1.68,24.42,5.01l.36.15,25.05-31.27c-3.54-1.71-7.17-3.22-10.89-4.56-11.67-4.15-24.46-6.24-38.38-6.24Z"/>
    <path class="cls-3" d="M1045.48,374.23v-39.16c-7.88-1.63-14.37-5.23-19.47-10.76-7.23-7.87-10.85-19.58-10.85-35.14v-107.41h-41.76v108.49c0,28.04,7.32,49.1,21.97,63.2,12.65,12.19,29.37,19.11,50.12,20.76Z"/>
    <polygon class="cls-3" points="1544.11 638.53 1585.89 638.53 1585.89 562.3 1585.89 523.78 1585.89 448.65 1544.11 448.65 1544.11 638.53"/>
    <rect class="cls-13" x="1217.2" y="507.69" width="41.77" height="130.89"/>
    <polygon class="cls-3" points="1047.49 448.02 966.11 639.25 1008.7 639.25 1040.98 559.78 1040.99 559.75 1086.19 448.46 1086 448.02 1047.49 448.02"/>
    <polygon class="cls-3" points="888.56 638.53 929.79 638.53 929.79 482.2 888.56 553.61 888.56 638.53"/>
    <path class="cls-3" d="M1455.84,597.3c-7.51,3.98-16.68,5.97-27.53,5.97-7.86,0-15.1-1.48-21.69-4.44l-29.74,29.74c3.59,2.08,7.35,3.94,11.28,5.61,11.94,5.07,24.87,7.6,38.79,7.6,9.22,0,17.54-.77,24.95-2.3,7.41-1.54,14.24-3.79,20.48-6.78,6.24-2.98,11.98-6.56,17.22-10.71,5.24-4.16,10.31-8.87,15.19-14.11l-26.58-26.85c-7.41,6.87-14.87,12.3-22.37,16.27Z"/>
    <path class="cls-3" d="M521.56,110.85c-.87-4.12-2.58-7.96-4.89-11.26-3.47-4.95-8.25-8.72-13.75-10.95-2.75-1.11-5.7-1.84-8.74-2.12-3.04-.28-6.18-.11-9.27.55l-227.19,48.38c-4.12.87-7.96,2.58-11.26,4.89-4.95,3.47-8.72,8.25-10.95,13.75-1.11,2.75-1.84,5.7-2.12,8.74-.28,3.04-.11,6.18.55,9.27l34.73,163.09-49.95-53.85-52.77,10.24,43.17,222.53,48.32-9.37-28-144.33,80.24,82.06,1.27-.25,76.18-193.55-51.43,9.98-28.4,74.4-34.44-161.72,212.81-45.32,83.87,393.84-136.88,29.15.04.19c-25.04,5.63-41.4,28.27-36.59,50.88l37.12,174.31c-4.37-1.89-10.14-3.28-17.73-3.57-22.76-.9-38.35-18.09-44.24-25.82-.96-1.26-2.52-1.76-3.96-1.46-.72.15-1.41.51-1.97,1.07-1.06,1.07-1.42,2.65-.93,4.08,7.8,22.77,19.1,34.63,45.93,40.2,26.67,5.54,32.02,28.35,32.39,30.11.02.07.02.11.02.11l13.75-2.93-40.38-189.6c9.84,5.55,22.17,7.64,34.7,4.97,25.37-5.4,42.01-28.25,37.16-51.03-.29-1.35-.66-2.67-1.08-3.96l97.78-20.82c4.12-.87,7.96-2.58,11.26-4.89,4.95-3.47,8.72-8.25,10.95-13.75,1.11-2.75,1.84-5.7,2.12-8.74.28-3.04.11-6.18-.55-9.27l-86.93-408.22Z"/>
  </g>
  <path class="cls-2" d="M1480.04,320.6l-.54-.61c-4.79-5.42-8.54-11.75-11.26-18.98-2.71-7.24-4.07-14.93-4.07-23.06v-.54c0-8.14,1.36-15.79,4.07-22.92,2.71-7.15,6.51-13.44,11.39-18.85,4.88-5.43,10.71-9.68,17.5-12.75,6.78-3.08,14.15-4.61,22.11-4.61,9.58,0,18.22,1.89,25.9,5.69,6.43,3.17,12.75,7.36,18.98,12.56l28.85-28.85c-3.95-3.8-8.18-7.33-12.7-10.56-5.07-3.61-10.59-6.69-16.55-9.22-5.97-2.53-12.61-4.52-19.93-5.97-7.33-1.45-15.41-2.17-24.27-2.17-14.65,0-28.03,2.59-40.15,7.74-12.12,5.15-22.52,12.2-31.2,21.16-8.68,8.95-15.46,19.34-20.34,31.19-4.89,11.85-7.33,24.55-7.33,38.12v.54c0,13.56,2.44,26.31,7.33,38.24,4.88,11.93,11.66,22.29,20.34,31.06.78.78,1.57,1.56,2.37,2.31l29.5-29.51Z"/>
  <rect class="cls-12" x="1347.09" y="183.06" width="41.77" height="189.87"/>
  <polygon class="cls-9" points="931.07 183.06 887.18 183.06 837.27 263.35 787.36 183.06 742.33 183.06 742.33 372.94 783.56 372.94 783.56 249.79 836.46 330.07 837.54 330.07 931.07 183.06"/>
  <path class="cls-1" d="M1309.1,316.79v-.54c0-8.32-1.3-15.46-3.92-21.43-2.63-5.97-6.56-11.16-11.72-15.6-5.15-4.44-11.52-8.23-19.02-11.39-6.23-2.63-13.21-5.03-20.92-7.23l-27.74,34.63c1.24.32,2.49.63,3.77.95,7.95,1.99,14.46,3.88,19.44,5.7,4.97,1.81,8.86,3.61,11.71,5.42,2.8,1.81,4.69,3.75,5.7,5.83.99,2.08,1.49,4.48,1.49,7.19v.54c0,5.61-2.4,9.99-7.18,13.15-4.79,3.16-11.53,4.75-20.21,4.75-10.85,0-20.84-2.09-29.97-6.24-3.47-1.58-6.9-3.37-10.32-5.37l-24.56,30.66c6.78,4.24,13.93,7.7,21.45,10.38,13.93,4.97,28.11,7.46,42.58,7.46,10.31,0,19.71-1.3,28.17-3.93,8.45-2.62,15.77-6.41,21.87-11.39,6.11-4.97,10.85-11.12,14.28-18.44,3.39-7.33,5.11-15.69,5.11-25.09"/>
  <path class="cls-4" d="M1138.85,288.9v-107.14h-41.78v108.77c0,15.2-3.61,26.58-10.85,34.18-5.1,5.35-11.59,8.82-19.46,10.4v39.02c8.32-.74,16.08-2.34,23.25-4.81,10.32-3.52,19.08-8.86,26.32-16,7.23-7.14,12.8-16.05,16.68-26.71,3.89-10.68,5.84-23.24,5.84-37.71"/>
  <polygon class="cls-6" points="1704.69 638.53 1704.69 448.65 1662.92 448.65 1662.92 523.78 1607.17 523.78 1607.17 562.3 1662.92 562.3 1662.92 638.53 1704.69 638.53"/>
  <polygon class="cls-11" points="1174.36 487.22 1159.42 487.22 1159.42 448.7 1316.75 448.7 1316.75 487.22 1301.62 487.22 1174.36 487.22"/>
  <polygon class="cls-10" points="1061.28 559.78 1046.3 596.66 1106.35 596.66 1123.71 639.25 1167.38 639.25 1096.58 472.87 1076.29 522.82 1091.43 559.78 1061.28 559.78"/>
  <polygon class="cls-7" points="928.65 448.65 884.77 448.65 834.86 528.94 784.95 448.65 739.92 448.65 739.92 638.53 781.15 638.53 781.15 515.38 834.04 595.66 835.13 595.66 928.65 448.65"/>
  <path class="cls-5" d="M1389.11,586.24l-.54-.61c-4.79-5.42-8.54-11.75-11.26-18.98-2.71-7.24-4.07-14.93-4.07-23.06v-.54c0-8.14,1.36-15.79,4.07-22.92,2.71-7.15,6.51-13.44,11.39-18.85,4.88-5.43,10.71-9.68,17.5-12.75,6.78-3.08,14.15-4.61,22.11-4.61,9.58,0,18.22,1.89,25.9,5.69,6.43,3.17,12.75,7.36,18.98,12.56l28.85-28.85c-3.95-3.8-8.18-7.33-12.7-10.56-5.07-3.61-10.59-6.69-16.55-9.22-5.97-2.53-12.61-4.52-19.93-5.97-7.33-1.45-15.41-2.17-24.27-2.17-14.65,0-28.03,2.59-40.15,7.74-12.12,5.15-22.52,12.2-31.2,21.16-8.68,8.95-15.46,19.34-20.34,31.19-4.89,11.85-7.33,24.55-7.33,38.12v.54c0,13.56,2.44,26.31,7.33,38.24,4.88,11.93,11.66,22.29,20.34,31.06.78.78,1.57,1.56,2.37,2.31l29.5-29.51Z"/>
  <path class="cls-14" d="M375.22,646.16l-38.92-182.77-37.4,7.96,37.39,175.57-212.81,45.32L39.61,298.41l131.37-27.98c.79-.13,1.58-.22,2.37-.39,25.37-5.4,42.01-28.25,37.16-51.02l-37.12-174.31c4.37,1.89,10.14,3.28,17.73,3.57,22.76.9,38.35,18.09,44.24,25.82.96,1.26,2.52,1.76,3.96,1.46.72-.15,1.41-.51,1.97-1.07,1.06-1.07,1.42-2.65.93-4.08-7.8-22.77-19.1-34.63-45.93-40.2C169.62,24.68,164.26,1.87,163.89.11c-.02-.07-.02-.11-.02-.11l-13.75,2.93,40.38,189.6c-9.84-5.55-22.17-7.64-34.7-4.97-25.37,5.4-42.01,28.25-37.16,51.03.27,1.26.62,2.48,1.01,3.69l-95.18,20.27c-4.12.87-7.96,2.58-11.26,4.89-4.95,3.47-8.72,8.25-10.95,13.75-1.11,2.75-1.84,5.7-2.12,8.74-.28,3.04-.11,6.18.55,9.27l86.93,408.22c.87,4.12,2.58,7.96,4.89,11.26,3.47,4.95,8.25,8.72,13.75,10.95,2.75,1.11,5.7,1.84,8.74,2.12,3.04.28,6.18.11,9.27-.55l227.19-48.38c4.12-.87,7.96-2.58,11.26-4.89,4.95-3.47,8.72-8.25,10.95-13.75,1.11-2.75,1.84-5.7,2.12-8.74.28-3.04.11-6.18-.55-9.27Z"/>
  <polygon class="cls-8" points="431.65 470.93 396.11 287.72 364.03 380.79 383.33 480.3 431.65 470.93"/>
</svg>